HIERARCHY
ROOT Hips
{
	OFFSET 0.00000 0.00000 0.00000
	CHANNELS 6 Xposition Yposition Zposition Zrotation Yrotation Xrotation 
	JOINT LHipJoint
	{
		OFFSET 0 0 0
		CHANNELS 3 Zrotation Yrotation Xrotation
		JOINT LeftUpLeg
		{
			OFFSET 1.41496 -1.84582 0.78394
			CHANNELS 3 Zrotation Yrotation Xrotation
			JOINT LeftLeg
			{
				OFFSET 2.58040 -7.08960 0.00000
				CHANNELS 3 Zrotation Yrotation Xrotation
				JOINT LeftFoot
				{
					OFFSET 2.64719 -7.27309 0.00000
					CHANNELS 3 Zrotation Yrotation Xrotation
					JOINT LeftToeBase
					{
						OFFSET 0.20718 -0.56921 2.20259
						CHANNELS 3 Zrotation Yrotation Xrotation
						End Site
						{
							OFFSET 0.00000 -0.00000 1.14243
						}
					}
				}
			}
		}
	}
	JOINT RHipJoint
	{
		OFFSET 0 0 0
		CHANNELS 3 Zrotation Yrotation Xrotation
		JOINT RightUpLeg
		{
			OFFSET -1.40551 -1.84582 0.78394
			CHANNELS 3 Zrotation Yrotation Xrotation
			JOINT RightLeg
			{
				OFFSET -2.56572 -7.04926 0.00000
				CHANNELS 3 Zrotation Yrotation Xrotation
				JOINT RightFoot
				{
					OFFSET -2.57974 -7.08778 0.00000
					CHANNELS 3 Zrotation Yrotation Xrotation
					JOINT RightToeBase
					{
						OFFSET -0.26704 -0.73369 2.20815
						CHANNELS 3 Zrotation Yrotation Xrotation
						End Site
						{
							OFFSET -0.00000 -0.00000 1.16246
						}
					}
				}
			}
		}
	}
	JOINT LowerBack
	{
		OFFSET 0 0 0
		CHANNELS 3 Zrotation Yrotation Xrotation
		JOINT Spine
		{
			OFFSET -0.04690 2.05196 -0.07017
			CHANNELS 3 Zrotation Yrotation Xrotation
			JOINT Spine1
			{
				OFFSET 0.04085 2.05260 0.00800
				CHANNELS 3 Zrotation Yrotation Xrotation
				JOINT Neck
				{
					OFFSET 0 0 0
					CHANNELS 3 Zrotation Yrotation Xrotation
					JOINT Neck1
					{
						OFFSET -0.03582 1.80995 0.19301
						CHANNELS 3 Zrotation Yrotation Xrotation
						JOINT Head
						{
							OFFSET 0.00952 1.80195 -0.36389
							CHANNELS 3 Zrotation Yrotation Xrotation
							End Site
							{
								OFFSET 0.00392 1.85062 -0.14494
							}
						}
					}
				}
				JOINT LeftShoulder
				{
					OFFSET 0 0 0
					CHANNELS 3 Zrotation Yrotation Xrotation
					JOINT LeftArm
					{
						OFFSET 3.55224 1.39726 -0.13667
						CHANNELS 3 Zrotation Yrotation Xrotation
						JOINT LeftForeArm
						{
							OFFSET 5.14507 -0.00000 -0.00000
							CHANNELS 3 Zrotation Yrotation Xrotation
							JOINT LeftHand
							{
								OFFSET 3.50646 -0.00000 0.00000
								CHANNELS 3 Zrotation Yrotation Xrotation
								JOINT LeftFingerBase
								{
									OFFSET 0 0 0
									CHANNELS 3 Zrotation Yrotation Xrotation
									JOINT LeftHandIndex1
									{
										OFFSET 0.62997 -0.00000 0.00000
										CHANNELS 3 Zrotation Yrotation Xrotation
										End Site
										{
											OFFSET 0.50790 -0.00000 0.00000
										}
									}
								}
								JOINT LThumb
								{
									OFFSET 0 0 0
									CHANNELS 3 Zrotation Yrotation Xrotation
									End Site
									{
										OFFSET 0.51565 -0.00000 0.51565
									}
								}
							}
						}
					}
				}
				JOINT RightShoulder
				{
					OFFSET 0 0 0
					CHANNELS 3 Zrotation Yrotation Xrotation
					JOINT RightArm
					{
						OFFSET -3.06467 1.61290 -0.28813
						CHANNELS 3 Zrotation Yrotation Xrotation
						JOINT RightForeArm
						{
							OFFSET -5.23200 -0.00000 -0.00000
							CHANNELS 3 Zrotation Yrotation Xrotation
							JOINT RightHand
							{
								OFFSET -3.65641 -0.00000 0.00000
								CHANNELS 3 Zrotation Yrotation Xrotation
								JOINT RightFingerBase
								{
									OFFSET 0 0 0
									CHANNELS 3 Zrotation Yrotation Xrotation
									JOINT RightHandIndex1
									{
										OFFSET -0.65681 -0.00000 0.00000
										CHANNELS 3 Zrotation Yrotation Xrotation
										End Site
										{
											OFFSET -0.52953 -0.00000 0.00000
										}
									}
								}
								JOINT RThumb
								{
									OFFSET 0 0 0
									CHANNELS 3 Zrotation Yrotation Xrotation
									End Site
									{
										OFFSET -0.53762 -0.00000 0.53762
									}
								}
							}
						}
					}
				}
			}
		}
	}
}
MOTION
Frames: 13
Frame Time: .0083333
-6.8627 14.5403 6.4013 -23.3353 39.1125 -15.0271 0.0000 0.0000 0.0000 -7.4374 -6.0717 -63.4877 19.6528 19.9971 88.9849 -0.0906 -16.8504 -10.9257 0.1756 2.6997 7.4437 0.0000 0.0000 0.0000 11.1752 -1.7853 -13.0356 -7.3225 -15.5975 50.0837 -2.0635 -2.9076 -28.3078 -7.6851 15.8827 -51.4204 10.8928 -1.6009 25.9706 7.7774 2.0706 4.2790 1.8305 0.8677 -9.6178 1.8333 4.2015 -19.4071 -10.8355 7.3039 13.8943 -2.9854 2.5331 8.0061 -0.0000 0.0000 0.0000 -90.9149 17.0258 46.1388 78.3505 -59.4809 -49.9288 -0.0000 0.0000 -6.0842 25.6451 -13.9071 -6.5822 -7.1250 0.0000 -0.0000 -1.2164 14.6238 0.8701 -0.0000 0.0000 0.0000 84.1685 0.6133 41.7048 -103.9092 59.2562 -72.0156 0.0000 -0.0000 -12.6488 -25.5455 9.4466 -4.4854 7.1250 -0.0000 -0.0000 1.0075 -19.5320 0.6128
-6.7051 14.5662 6.7839 -23.7787 39.9773 -14.9013 0.0000 0.0000 0.0000 -8.6965 -6.3466 -64.4818 18.7276 19.9611 86.2774 -0.0255 -15.9687 -10.9510 0.2253 3.0553 8.4328 0.0000 0.0000 0.0000 11.8803 -3.0690 -11.4602 -7.0375 -15.3634 49.0160 -2.1680 -3.4989 -29.2406 -7.7515 15.9334 -51.6626 10.7450 -1.3177 25.7747 7.7573 2.3840 4.0951 1.7867 1.0116 -9.7202 1.7724 3.8159 -19.5405 -10.4943 6.7332 13.9790 -2.9367 2.2845 7.9995 0.0000 -0.0000 0.0000 -90.2020 18.4237 43.8774 77.9888 -59.4478 -49.6173 -0.0000 0.0000 -6.5431 25.5014 -13.8090 -6.4954 -7.1250 0.0000 -0.0000 -1.3071 14.7492 0.9315 0.0000 -0.0000 0.0000 83.2818 1.5852 42.3300 -107.1103 58.8644 -74.7614 0.0000 -0.0000 -12.8269 -25.3720 9.7730 -4.6023 7.1250 -0.0000 -0.0000 1.1474 -19.1880 0.7067
-6.5337 14.5981 7.1705 -24.4130 40.9153 -14.8908 0.0000 0.0000 0.0000 -9.8344 -6.7126 -65.1964 17.7801 19.8814 83.4970 -0.0224 -15.4420 -10.6023 0.2811 3.4102 9.4228 0.0000 0.0000 0.0000 12.7889 -4.2159 -9.6345 -6.6655 -15.0436 47.5976 -2.2079 -4.3611 -29.8893 -7.8257 15.9895 -51.9323 10.7048 -1.0858 25.4271 7.7621 2.6395 3.9159 1.7301 1.1294 -9.7365 1.7207 3.4290 -19.6458 -10.1336 6.1558 14.0807 -2.8839 2.0359 7.9953 0.0000 0.0000 0.0000 -89.1478 19.8296 42.2076 78.5994 -59.5031 -50.1432 -0.0000 0.0000 -6.6484 25.2453 -13.6386 -6.3444 -7.1250 0.0000 -0.0000 -1.4697 14.9666 1.0407 0.0000 0.0000 0.0000 82.3930 2.2065 42.6174 -110.2149 58.3982 -77.4125 0.0000 -0.0000 -13.1244 -25.1567 10.0998 -4.7081 7.1250 -0.0000 -0.0000 1.3166 -18.8485 0.8209
-6.3484 14.6349 7.5610 -25.2244 41.9098 -14.9529 0.0000 0.0000 0.0000 -10.8288 -7.1553 -65.6783 16.8403 19.7589 80.7260 -0.0699 -15.1965 -9.8888 0.3380 3.7361 10.3353 0.0000 0.0000 0.0000 13.8871 -5.1826 -7.6625 -6.2333 -14.6507 45.9109 -2.1710 -5.4109 -30.1775 -7.9078 16.0510 -52.2299 10.7498 -0.8908 24.8881 7.7909 2.8421 3.7330 1.6719 1.2241 -9.6542 1.6770 3.0398 -19.7151 -9.7454 5.5665 14.1793 -2.8244 1.7862 7.9848 -0.0000 -0.0000 0.0000 -87.8188 21.2161 41.1320 79.9546 -59.6152 -51.3117 -0.0000 0.0000 -6.6064 24.8379 -13.4488 -6.1444 -7.1250 0.0000 -0.0000 -1.7354 15.2220 1.2194 -0.0000 -0.0000 0.0000 81.4993 2.4827 42.6027 -113.1265 57.8794 -79.8856 0.0000 -0.0000 -13.5193 -24.9271 10.4151 -4.8026 7.1250 -0.0000 -0.0000 1.4951 -18.5240 0.9429
-6.1501 14.6765 7.9556 -26.2198 42.9436 -15.1051 0.0000 0.0000 0.0000 -11.6421 -7.6438 -65.9295 15.9365 19.5994 78.0426 -0.1584 -15.1566 -8.8048 0.4054 4.0877 11.3236 0.0000 0.0000 0.0000 15.1813 -5.9400 -5.6075 -5.7728 -14.2045 44.0628 -2.0511 -6.5563 -30.0414 -7.9932 16.1142 -52.5380 10.8516 -0.7219 24.1681 7.8544 3.0001 3.5480 1.6379 1.3012 -9.4771 1.6050 2.6436 -19.7655 -9.2892 4.9624 14.2883 -2.7389 1.5350 7.9735 -0.0000 0.0000 0.0000 -86.3078 22.5490 40.6038 81.8412 -59.7470 -52.9402 -0.0000 0.0000 -6.6564 24.2999 -13.2949 -5.9279 -7.1250 0.0000 -0.0000 -2.0945 15.4516 1.4618 -0.0000 0.0000 0.0000 80.6014 2.4287 42.3249 -115.7394 57.3423 -82.0921 0.0000 -0.0000 -13.9743 -24.7249 10.7165 -4.8940 7.1250 -0.0000 -0.0000 1.6530 -18.2134 1.0540
-5.9386 14.7228 8.3533 -27.3094 44.0220 -15.3122 0.0000 0.0000 0.0000 -12.3520 -8.1617 -65.9250 15.0911 19.4122 75.5109 -0.2668 -15.1984 -7.4448 0.5329 4.6775 12.9911 0.0000 0.0000 0.0000 16.5724 -6.4995 -3.5404 -5.3200 -13.7353 42.1874 -1.8516 -7.6768 -29.4252 -8.0848 16.1813 -52.8677 10.9326 -0.5693 23.2962 7.9420 3.1072 3.3649 1.6612 1.3595 -9.2182 1.4923 2.2422 -19.8066 -8.7597 4.3495 14.4154 -2.6228 1.2847 7.9667 0.0000 -0.0000 0.0000 -84.7194 23.7876 40.5343 84.0548 -59.8660 -54.8537 -0.0000 0.0000 -6.9602 23.6174 -13.2039 -5.7035 -7.1250 0.0000 -0.0000 -2.5581 15.6265 1.7762 0.0000 -0.0000 0.0000 79.6964 2.0682 41.8209 -117.9499 56.8319 -83.9479 0.0000 -0.0000 -14.4556 -24.5655 10.9865 -4.9787 7.1250 -0.0000 -0.0000 1.7790 -17.9339 1.1453
-5.7136 14.7746 8.7516 -28.4146 45.1324 -15.5565 0.0000 0.0000 0.0000 -13.0238 -8.6756 -65.6332 14.3270 19.2102 73.2007 -0.3724 -15.2043 -5.9378 0.7853 5.6575 15.7937 0.0000 0.0000 0.0000 17.9667 -6.8742 -1.5300 -4.9088 -13.2804 40.4273 -1.5957 -8.5772 -28.3049 -8.1710 16.2436 -53.1763 10.9406 -0.4290 22.3352 8.0388 3.1642 3.1851 1.7524 1.3992 -8.9104 1.3535 1.8418 -19.8407 -8.1705 3.7356 14.5735 -2.4823 1.0381 7.9715 -0.0000 0.0000 0.0000 -83.1576 24.8924 40.7942 86.4021 -59.9510 -56.8847 -0.0000 0.0000 -7.5653 22.7925 -13.2097 -5.4849 -7.1250 0.0000 -0.0000 -3.1258 15.7097 2.1660 -0.0000 0.0000 0.0000 78.8099 1.4153 41.1201 -119.6643 56.3987 -85.3794 0.0000 -0.0000 -14.9333 -24.4323 11.2171 -5.0503 7.1250 -0.0000 -0.0000 1.8844 -17.6956 1.2231
-5.4749 14.8322 9.1480 -29.5103 46.2462 -15.8648 0.0000 0.0000 0.0000 -13.6774 -9.1433 -65.0207 13.6696 19.0108 71.1930 -0.3930 -14.9566 -5.3215 0.9275 6.1354 17.1777 0.0000 0.0000 0.0000 19.3167 -7.0863 0.3665 -4.5667 -12.8786 38.9158 -1.3067 -9.1410 -26.6595 -8.2428 16.2949 -53.4324 10.8810 -0.3055 21.3692 8.1384 3.1820 3.0107 1.8965 1.4231 -8.5952 1.2034 1.4502 -19.8758 -7.5430 3.1318 14.7778 -2.3259 0.7992 7.9967 -0.0000 -0.0000 0.0000 -81.7175 25.8361 41.2640 88.7436 -59.9940 -58.9119 -0.0000 0.0000 -8.3859 21.8852 -13.3032 -5.2810 -7.1250 0.0000 -0.0000 -3.7546 15.7050 2.6038 -0.0000 -0.0000 0.0000 77.9894 0.4754 40.2544 -120.7997 56.0931 -86.3234 0.0000 -0.0000 -15.3374 -24.3304 11.3814 -5.0989 7.1250 -0.0000 -0.0000 1.9642 -17.5267 1.2823
-5.2221 14.8947 9.5393 -30.5737 47.3367 -16.2251 0.0000 0.0000 0.0000 -14.3199 -9.5520 -64.0978 13.1399 18.8321 69.5594 -0.3770 -14.4540 -4.9650 1.2737 7.1527 20.1686 0.0000 0.0000 0.0000 20.5555 -7.1930 2.0358 -4.3140 -12.5670 37.7684 -1.0142 -9.2251 -24.4667 -8.2841 16.3243 -53.5796 10.7740 -0.2052 20.4423 8.2327 3.1657 2.8355 2.0706 1.4310 -8.3014 1.0589 1.0801 -19.9200 -6.9070 2.5563 15.0356 -2.1642 0.5747 8.0481 0.0000 -0.0000 0.0000 -80.4746 26.6028 41.8369 91.0207 -59.9961 -60.8840 -0.0000 0.0000 -9.2966 21.0001 -13.4124 -5.0883 -7.1250 0.0000 -0.0000 -4.3680 15.6792 3.0339 0.0000 -0.0000 0.0000 77.2654 -0.7205 39.2528 -121.2768 55.9600 -86.7191 0.0000 -0.0000 -15.6344 -24.2410 11.4518 -5.1086 7.1250 -0.0000 -0.0000 2.0304 -17.4589 1.3286
-4.9546 14.9628 9.9234 -31.5787 48.3820 -16.6441 0.0000 0.0000 0.0000 -14.9545 -9.8819 -62.8541 12.7459 18.6885 68.3345 -0.3123 -13.7776 -5.2529 1.7105 8.2352 23.4307 0.0000 0.0000 0.0000 21.6168 -7.2573 3.4025 -4.1642 -12.3757 37.0745 -0.7328 -8.7946 -21.6634 -8.2556 16.3041 -53.4781 10.6442 -0.1423 19.6195 8.3122 3.1129 2.6614 2.2500 1.4193 -8.0612 0.9319 0.7472 -19.9725 -6.2936 2.0317 15.3366 -2.0068 0.3737 8.1234 0.0000 -0.0000 0.0000 -79.5059 27.1841 42.3840 93.1945 -59.9614 -62.7662 -0.0000 0.0000 -10.1139 20.2074 -13.5212 -4.9187 -7.1250 0.0000 -0.0000 -4.9167 15.6432 3.4216 0.0000 -0.0000 0.0000 76.6703 -2.1410 38.1589 -121.0435 56.0254 -86.5257 0.0000 -0.0000 -15.8040 -24.1465 11.4083 -5.0673 7.1250 -0.0000 -0.0000 2.0943 -17.5154 1.3678
-4.6737 15.0358 10.2989 -32.5151 49.3547 -17.0886 0.0000 0.0000 0.0000 -15.5424 -10.1415 -61.3419 12.4814 18.5868 67.5069 -0.2010 -12.9273 -6.1853 2.2062 9.2831 26.6848 0.0000 0.0000 0.0000 22.4747 -7.2929 4.3584 -4.1268 -12.3272 36.8995 -0.4590 -7.9722 -18.1192 -8.1247 16.2102 -53.0107 10.5156 -0.1171 18.9097 8.3714 3.0299 2.4811 2.4128 1.3895 -7.8862 0.8260 0.4621 -20.0277 -5.7203 1.5732 15.6605 -1.8583 0.2025 8.2147 -0.0000 -0.0000 0.0000 -78.8567 27.5715 42.8105 95.2690 -59.8948 -64.5615 -0.0000 0.0000 -10.7080 19.5771 -13.6216 -4.7876 -7.1250 0.0000 -0.0000 -5.3528 15.5989 3.7328 -0.0000 -0.0000 0.0000 76.2227 -3.7406 37.0089 -120.0583 56.2944 -85.7074 0.0000 -0.0000 -15.8542 -24.0386 11.2518 -4.9740 7.1250 -0.0000 -0.0000 2.1621 -17.6959 1.4036
-4.3815 15.1118 10.6646 -33.2976 50.2580 -17.4352 0.0000 0.0000 0.0000 -16.1080 -10.3649 -59.6409 12.3215 18.5233 67.0042 -0.0523 -11.9610 -7.6400 2.7411 10.2637 29.8349 0.0000 0.0000 0.0000 23.0583 -7.2881 4.7936 -4.2089 -12.4333 37.2827 -0.2136 -6.5448 -13.4902 -7.6943 15.8897 -51.4539 10.3663 -0.1214 18.2879 8.3893 2.9172 2.2783 2.5481 1.3412 -7.7808 0.7347 0.2282 -20.0756 -5.1936 1.1867 15.9790 -1.7185 0.0633 8.3100 -0.0000 -0.0000 0.0000 -78.5432 27.7623 43.0611 97.2939 -59.7980 -66.3124 -0.0000 0.0000 -11.0388 19.1803 -13.6768 -4.7019 -7.1250 0.0000 -0.0000 -5.6267 15.5789 3.9281 -0.0000 -0.0000 0.0000 75.9236 -5.4635 35.8318 -118.2833 56.7503 -84.2268 0.0000 -0.0000 -15.8029 -23.9166 10.9923 -4.8336 7.1250 -0.0000 -0.0000 2.2354 -17.9891 1.4368
-4.0814 15.1889 11.0208 -33.8795 51.0985 -17.6057 0.0000 0.0000 0.0000 -16.6489 -10.5723 -57.8288 12.2336 18.4877 66.7274 0.1215 -10.9855 -9.4281 3.2761 11.1291 32.7164 0.0000 0.0000 0.0000 23.3604 -7.2115 4.6679 -4.4152 -12.6933 38.2309 -0.0431 -5.0508 -8.4779 -7.1106 15.4243 -49.2914 10.1691 -0.1445 17.7174 8.3597 2.7757 2.0547 2.6635 1.2762 -7.7239 0.6591 0.0449 -20.1005 -4.7199 0.8709 16.2466 -1.5893 -0.0446 8.3899 -0.0000 -0.0000 0.0000 -78.5567 27.7387 43.1174 99.3433 -59.6676 -68.0825 -0.0000 0.0000 -11.1545 19.0308 -13.6821 -4.6643 -7.1250 0.0000 -0.0000 -5.7294 15.5875 3.9995 -0.0000 -0.0000 0.0000 75.7695 -7.2454 34.6434 -115.7085 57.3491 -82.0661 0.0000 -0.0000 -15.6819 -23.7965 10.6558 -4.6616 7.1250 -0.0000 -0.0000 2.3047 -18.3652 1.4623
